<svg width="55" height="55" xmlns="http://www.w3.org/2000/svg"><circle cx="27.5" cy="27.5" r="26.992" fill="#fff"/><path d="m50.962 22.449-4.058-.883 2.74-3.19c-2.386-2.367-7.51-2.988-12.775-1.277-.75.243-1.485.528-2.202.856.089-.775.133-1.555.132-2.335 0-5.535-2.174-10.215-5.163-11.752L27.448 7.46l-2.094-3.586c-2.984 1.544-5.152 6.22-5.152 11.747 0 .78.043 1.56.131 2.335a20.506 20.506 0 0 0-2.201-.856c-5.265-1.71-10.387-1.09-12.775 1.278l2.737 3.19-4.055.882c.545 3.314 4.323 6.821 9.583 8.53.737.24 1.488.437 2.247.592a20.745 20.745 0 0 0-1.467 1.8c-3.255 4.477-4.247 9.54-2.732 12.54l3.882-1.619-.414 4.132c3.32.504 7.825-2.006 11.078-6.476.468-.643.898-1.313 1.288-2.006.39.693.821 1.363 1.29 2.006 3.25 4.473 7.753 6.976 11.077 6.476l-.415-4.132 3.878 1.62c1.514-3 .524-8.064-2.733-12.542a20.566 20.566 0 0 0-1.468-1.799c.76-.155 1.511-.353 2.249-.593 5.257-1.708 9.035-5.215 9.58-8.529z" fill="#b00"/><path d="m39.249 32.077.024-.017-.01-.027 7.755-10.104-.113-.087.038-.137L34.78 18.3l-.008-.025h-.028L27.566 7.656l-.118.08-.119-.08-7.071 10.618h-.027l-.009.025-12.164 3.407.036.137-.112.087 7.744 9.965-.316 12.67h.14l.048.134 11.88-4.142.023.016.023-.016 11.88 4.142.046-.134h.143zm-6.085 4.052v-.006l-5.135.312 6.337-3.657 4.217-.568zm-11.458-.095-5.283-3.822 4.08.564 6.319 3.647-5.116-.396zm-3.5-10.644 1.788-.421a.627.627 0 0 0 .413.325v7.182l-4.32-.598zm15.519-6.832-6.275 2.006-.016-.01-.016.01-6.158-2.006zm-12.721 6.555 2.268 1.263-.89 1.935-1.453-3.13a.688.688 0 0 0 .075-.068zm6.428-.417a.61.61 0 0 0 .18-.027l.872 1.506h-2.099l.873-1.506a.611.611 0 0 0 .176.023zm1.214 1.762 1.257 2.18-1.257 2.18h-2.424l-1.26-2.18 1.26-2.18zm.328 0h2.187l-1.092 1.89zm1.831 4.36h-1.831l1.093-1.894.915 1.584a.615.615 0 0 0-.177.303zm-2.32.284-1.048 1.817-1.046-1.817zm-4.42-.284a.623.623 0 0 0-.18-.31l.915-1.584 1.094 1.894zm.735-2.462-1.092-1.902h2.187zm-1.325-1.728 1.16 2.012-.995 1.726a.612.612 0 0 0-.307-.014l-.785-1.7zm-.399 3.844a.621.621 0 0 0 .615 1.065l.932 1.326-3.86-.34 1.625-3.532zm.848.901a.628.628 0 0 0 .141-.271h1.993l1.147 1.981-2.213-.195zm3.369 2.013v2.63a.676.676 0 0 0-.087.027l-1.996-2.841zm.374 2.657a.636.636 0 0 0-.087-.027v-2.638l2.085-.184zm0-2.952 1.149-1.99h1.993a.61.61 0 0 0 .139.264l-1.07 1.523zm3.515-1.554a.621.621 0 0 0 .615-1.065l.688-1.482 1.625 3.531-3.86.334zm.358-1.185a.612.612 0 0 0-.306.014l-.996-1.726 1.161-2.012.927 2.016zm.057-3.972 2.268-1.263a.73.73 0 0 0 .076.07l-1.458 3.119zm2.104-1.616c.004.035.01.069.02.102l-2.268 1.265-1.186-1.671zm-2.567 1.41h-2.323l-.951-1.652a.623.623 0 0 0 .164-.262l1.872.164zm-3.086-2.195a.62.62 0 0 0-1.23 0l-1.634.148 2.25-3.168 2.246 3.16zm-1.2.286c.032.1.089.19.165.262l-.952 1.648h-2.326l1.232-1.735zm-3.426 1.861-2.268-1.265a.51.51 0 0 0 .017-.082l3.432-.31zm-2.726-.792 1.538 3.314-1.538 3.346zm4.145 7.827 2.112 3.008-5.775-3.33zm5.195 0 3.66-.323-5.772 3.331zm2.606-4.517 1.54-3.313v6.656zm-2.59-4.49-2.125-2.99 5.725 3.307zm-5.24.007-3.634.33 5.762-3.325zm9.65 8.313v-7.178a.62.62 0 0 0 .416-.334l1.92.429 2.117 6.487zm.479-7.791a.62.62 0 0 0-1.074-.42l-6.084-3.51 6.79-2.171 2.12 6.493zm-7.3-6.41-.05-10.07 6.81 10.07zm-.283 0h-6.76l6.71-10.071zm-.27 2.48-6.084 3.513a.621.621 0 0 0-1.077.423l-1.617.382 2.119-6.49zM15.873 31.62 8.5 22.13l9.42 3.227zm.128.637 5.479 3.964-5.776 7.902zm5.709 4.13 5.487 3.97-11.262 3.924zm5.79 3.838-5.363-3.88 4.683.366a.62.62 0 0 0 1.225.01l4.7-.286zm11.472-7.947.326 11.851-5.908-7.812zm-1.887-6.922 9.42-3.226-7.349 9.575zm9.344-3.5-9.432 3.227-2.11-6.462zm-28.421 3.227-9.431-3.226 11.54-3.233zm15.152 11.4 5.894 7.797-11.252-3.924z" fill="#fcfcfc"/></svg>